<svg width="431" height="408" viewBox="0 0 431 408" fill="none" xmlns="http://www.w3.org/2000/svg">
<g filter="url(#filter0_d_1113_193)">
<path d="M100 52C100 38.7452 110.745 28 124 28H299C312.255 28 323 38.7452 323 52V244C323 252.837 315.837 260 307 260H116C107.163 260 100 252.837 100 244V52Z" fill="url(#paint0_linear_1113_193)"/>
<path d="M124 28.5H299C311.979 28.5 322.5 39.0213 322.5 52V244C322.5 252.56 315.56 259.5 307 259.5H116C107.44 259.5 100.5 252.56 100.5 244V52C100.5 39.0213 111.021 28.5 124 28.5Z" stroke="url(#paint1_linear_1113_193)"/>
</g>
<g filter="url(#filter1_d_1113_193)">
<path d="M107 67C107 40.4903 128.49 19 155 19H269C295.51 19 317 40.4903 317 67V237C317 245.837 309.837 253 301 253H123C114.163 253 107 245.837 107 237V67Z" fill="url(#paint2_linear_1113_193)"/>
<path d="M155 19.5H269C295.234 19.5 316.5 40.7665 316.5 67V237C316.5 245.56 309.56 252.5 301 252.5H123C114.44 252.5 107.5 245.56 107.5 237V67C107.5 40.7665 128.766 19.5 155 19.5Z" stroke="url(#paint3_linear_1113_193)"/>
</g>
<g filter="url(#filter2_d_1113_193)">
<path d="M104 61C104 34.4903 125.49 13 152 13H272C298.51 13 320 34.4903 320 61V231C320 239.837 312.837 247 304 247H120C111.163 247 104 239.837 104 231V61Z" fill="url(#paint4_linear_1113_193)"/>
<path d="M152 13.5H272C298.234 13.5 319.5 34.7665 319.5 61V231C319.5 239.56 312.56 246.5 304 246.5H120C111.44 246.5 104.5 239.56 104.5 231V61C104.5 34.7665 125.766 13.5 152 13.5Z" stroke="url(#paint5_linear_1113_193)"/>
</g>
<g filter="url(#filter3_d_1113_193)">
<mask id="path-7-inside-1_1113_193" fill="white">
<path d="M195.796 146.989C209.846 149.966 217.229 159.016 217.229 170.923C217.229 185.093 206.036 198.667 180.912 198.667C169.362 198.667 157.097 195.809 148.524 190.451L157.097 172.709C163.765 177.234 172.338 179.615 180.197 179.615C188.175 179.615 193.414 176.519 193.414 170.923C193.414 165.922 189.723 162.826 180.674 162.826H170.79V147.942L185.675 131.867H152.81V113.649H213.061V128.414L195.796 146.989ZM227.414 113.649H266.471V197H242.894V131.867H227.414V113.649Z"/>
</mask>
<path d="M195.796 146.989C209.846 149.966 217.229 159.016 217.229 170.923C217.229 185.093 206.036 198.667 180.912 198.667C169.362 198.667 157.097 195.809 148.524 190.451L157.097 172.709C163.765 177.234 172.338 179.615 180.197 179.615C188.175 179.615 193.414 176.519 193.414 170.923C193.414 165.922 189.723 162.826 180.674 162.826H170.79V147.942L185.675 131.867H152.81V113.649H213.061V128.414L195.796 146.989ZM227.414 113.649H266.471V197H242.894V131.867H227.414V113.649Z" fill="#9F9F9F"/>
<path d="M195.796 146.989L195.004 146.253L193.704 147.651L195.572 148.047L195.796 146.989ZM148.524 190.451L147.55 189.981L147.128 190.854L147.951 191.368L148.524 190.451ZM157.097 172.709L157.704 171.814L156.668 171.111L156.123 172.239L157.097 172.709ZM170.79 162.826H169.709V163.907H170.79V162.826ZM170.79 147.942L169.997 147.207L169.709 147.518V147.942H170.79ZM185.675 131.867L186.468 132.602L188.149 130.786H185.675V131.867ZM152.81 131.867H151.729V132.948H152.81V131.867ZM152.81 113.649V112.567H151.729V113.649H152.81ZM213.061 113.649H214.143V112.567H213.061V113.649ZM213.061 128.414L213.853 129.15L214.143 128.839V128.414H213.061ZM195.572 148.047C202.418 149.497 207.55 152.407 210.967 156.319C214.379 160.224 216.148 165.202 216.148 170.923H218.31C218.31 164.736 216.388 159.236 212.596 154.896C208.809 150.562 203.224 147.458 196.02 145.931L195.572 148.047ZM216.148 170.923C216.148 177.714 213.471 184.345 207.782 189.293C202.087 194.246 193.283 197.586 180.912 197.586V199.748C193.665 199.748 203.019 196.301 209.202 190.925C215.39 185.542 218.31 178.302 218.31 170.923H216.148ZM180.912 197.586C169.506 197.586 157.455 194.758 149.097 189.534L147.951 191.368C156.739 196.861 169.217 199.748 180.912 199.748V197.586ZM149.497 190.921L158.071 173.179L156.123 172.239L147.55 189.981L149.497 190.921ZM156.49 173.604C163.353 178.261 172.142 180.697 180.197 180.697V178.534C172.535 178.534 164.177 176.207 157.704 171.814L156.49 173.604ZM180.197 180.697C184.304 180.697 187.836 179.903 190.38 178.279C192.972 176.623 194.496 174.12 194.496 170.923H192.333C192.333 173.323 191.237 175.165 189.215 176.456C187.144 177.779 184.069 178.534 180.197 178.534V180.697ZM194.496 170.923C194.496 168.115 193.436 165.733 191.046 164.105C188.731 162.528 185.288 161.745 180.674 161.745V163.907C185.108 163.907 188.036 164.672 189.829 165.893C191.548 167.063 192.333 168.729 192.333 170.923H194.496ZM180.674 161.745H170.79V163.907H180.674V161.745ZM171.872 162.826V147.942H169.709V162.826H171.872ZM171.584 148.676L186.468 132.602L184.881 131.132L169.997 147.207L171.584 148.676ZM185.675 130.786H152.81V132.948H185.675V130.786ZM153.892 131.867V113.649H151.729V131.867H153.892ZM152.81 114.73H213.061V112.567H152.81V114.73ZM211.98 113.649V128.414H214.143V113.649H211.98ZM212.269 127.678L195.004 146.253L196.588 147.725L213.853 129.15L212.269 127.678ZM227.414 113.649V112.567H226.333V113.649H227.414ZM266.471 113.649H267.552V112.567H266.471V113.649ZM266.471 197V198.081H267.552V197H266.471ZM242.894 197H241.813V198.081H242.894V197ZM242.894 131.867H243.975V130.786H242.894V131.867ZM227.414 131.867H226.333V132.948H227.414V131.867ZM227.414 114.73H266.471V112.567H227.414V114.73ZM265.389 113.649V197H267.552V113.649H265.389ZM266.471 195.919H242.894V198.081H266.471V195.919ZM243.975 197V131.867H241.813V197H243.975ZM242.894 130.786H227.414V132.948H242.894V130.786ZM228.496 131.867V113.649H226.333V131.867H228.496Z" fill="url(#paint6_linear_1113_193)" fill-opacity="0.5" mask="url(#path-7-inside-1_1113_193)"/>
</g>
<path d="M116.5 68.5H307.5V232C307.5 233.933 305.933 235.5 304 235.5H120C118.067 235.5 116.5 233.933 116.5 232V68.5Z" stroke="white" stroke-opacity="0.1"/>
<path d="M116 227H308V232C308 234.209 306.209 236 304 236H120C117.791 236 116 234.209 116 232V227Z" fill="#FF7777"/>
<path d="M116.5 227.5H307.5V232C307.5 233.933 305.933 235.5 304 235.5H120C118.067 235.5 116.5 233.933 116.5 232V227.5Z" stroke="url(#paint7_linear_1113_193)" stroke-opacity="0.25"/>
<path d="M104 37C104 23.7452 114.745 13 128 13H296C309.255 13 320 23.7452 320 37V76H104V37Z" fill="#FF7777"/>
<path d="M128 13.5H296C308.979 13.5 319.5 24.0213 319.5 37V75.5H104.5V37C104.5 24.0213 115.021 13.5 128 13.5Z" stroke="url(#paint8_linear_1113_193)" stroke-opacity="0.5"/>
<circle cx="17" cy="17" r="17" transform="matrix(1 0 0 -1 240 63)" fill="url(#paint9_linear_1113_193)" fill-opacity="0.25"/>
<circle cx="17" cy="17" r="18" transform="matrix(1 0 0 -1 240 63)" stroke="url(#paint10_linear_1113_193)" stroke-opacity="0.25" stroke-width="2"/>
<circle cx="17" cy="17" r="17" transform="matrix(1 0 0 -1 144 63)" fill="url(#paint11_linear_1113_193)" fill-opacity="0.25"/>
<circle cx="17" cy="17" r="18" transform="matrix(1 0 0 -1 144 63)" stroke="url(#paint12_linear_1113_193)" stroke-opacity="0.25" stroke-width="2"/>
<circle cx="161" cy="45" r="11" fill="#302F2F"/>
<circle cx="257" cy="45" r="11" fill="#302F2F"/>
<path fill-rule="evenodd" clip-rule="evenodd" d="M161 0C165.418 0 169 3.80558 169 8.5V43.5C169 48.1944 165.418 52 161 52C156.582 52 153 48.1944 153 43.5V8.5C153 3.80558 156.582 0 161 0Z" fill="url(#paint13_linear_1113_193)"/>
<path fill-rule="evenodd" clip-rule="evenodd" d="M257 0C261.418 0 265 3.80558 265 8.5V43.5C265 48.1944 261.418 52 257 52C252.582 52 249 48.1944 249 43.5V8.5C249 3.80558 252.582 0 257 0Z" fill="url(#paint14_linear_1113_193)"/>
<path fill-rule="evenodd" clip-rule="evenodd" d="M128.395 79.7257C127.088 79.2528 125.878 79.0579 125 79.0114V79.0254C119.793 79.0254 116.884 82.0726 115.815 83.5786L115 84.7282L114.184 83.5786C111.309 79.5257 106.675 78.8618 105.1 79.0203L104.899 77.0304C106.826 76.8364 111.609 77.5131 115.006 81.3955C116.563 79.6559 119.456 77.3893 123.907 77.0647L123.904 77.0299C125.027 76.9223 126.977 77.0858 129.075 77.845C130.888 78.5011 132.855 79.6176 134.506 81.4358C136.13 79.6857 139.182 77.3769 143.903 77.0616L143.899 77.0304C145.826 76.8364 150.609 77.5131 154.006 81.3955C155.563 79.6565 158.454 77.3908 162.903 77.065L162.899 77.0304C164.826 76.8364 169.609 77.5131 173.006 81.3955C174.563 79.6559 177.456 77.3893 181.907 77.0647L181.904 77.0299C183.027 76.9223 184.977 77.0858 187.075 77.845C188.888 78.5011 190.855 79.6176 192.506 81.4358C194.13 79.6857 197.182 77.3769 201.903 77.0616L201.899 77.0304C203.826 76.8364 208.609 77.5131 212.006 81.3955C213.563 79.6559 216.456 77.3893 220.907 77.0647L220.904 77.0299C222.027 76.9223 223.977 77.0858 226.075 77.845C227.888 78.5011 229.855 79.6176 231.506 81.4358C233.13 79.6857 236.182 77.3769 240.903 77.0616L240.899 77.0304C242.826 76.8364 247.609 77.5131 251.006 81.3955C252.563 79.6565 255.454 77.3908 259.903 77.065L259.899 77.0304C261.826 76.8364 266.609 77.5131 270.006 81.3955C271.563 79.6559 274.456 77.3893 278.907 77.0647L278.904 77.0299C280.027 76.9223 281.977 77.0858 284.075 77.845C285.888 78.5011 287.855 79.6176 289.506 81.4358C291.13 79.6857 294.182 77.3769 298.903 77.0616L298.899 77.0304C300.826 76.8364 305.609 77.5131 309.006 81.3955C310.687 79.5175 313.924 77.0254 319 77.0254V79.0254C313.793 79.0254 310.884 82.0726 309.815 83.5786L309 84.7282L308.184 83.5786C305.74 80.1341 302.026 79.1375 300 79.0132V79.0254C294.489 79.0254 291.419 82.0967 290.302 83.5974L289.5 84.6739L288.698 83.5974C287.192 81.5762 285.226 80.3884 283.395 79.7257C282.088 79.2528 280.878 79.0579 280 79.0114V79.0254C274.793 79.0254 271.884 82.0726 270.815 83.5786L270 84.7282L269.184 83.5786C266.74 80.1341 263.026 79.1375 261 79.0132V79.0254C255.793 79.0254 252.884 82.0726 251.815 83.5786L251 84.7282L250.184 83.5786C247.74 80.1341 244.026 79.1375 242 79.0132V79.0254C236.489 79.0254 233.419 82.0967 232.302 83.5974L231.5 84.6739L230.698 83.5974C229.192 81.5762 227.226 80.3884 225.395 79.7257C224.088 79.2528 222.878 79.0579 222 79.0114V79.0254C216.793 79.0254 213.884 82.0726 212.815 83.5786L212 84.7282L211.184 83.5786C208.74 80.1341 205.026 79.1375 203 79.0132V79.0254C197.489 79.0254 194.419 82.0967 193.302 83.5974L192.5 84.6739L191.698 83.5974C190.192 81.5762 188.226 80.3884 186.395 79.7257C185.088 79.2528 183.878 79.0579 183 79.0114V79.0254C177.793 79.0254 174.884 82.0726 173.815 83.5786L173 84.7282L172.184 83.5786C169.74 80.1341 166.026 79.1375 164 79.0132V79.0254C158.793 79.0254 155.884 82.0726 154.815 83.5786L154 84.7282L153.184 83.5786C150.74 80.1341 147.026 79.1375 145 79.0132V79.0254C139.489 79.0254 136.419 82.0967 135.302 83.5974L134.5 84.6739L133.698 83.5974C132.192 81.5762 130.226 80.3884 128.395 79.7257Z" fill="#303030"/>
<path d="M105 77H319" stroke="#303030" stroke-width="2"/>
<path d="M40.32 384.96C19.776 384.96 4.416 370.464 4.416 350.4C4.416 330.336 19.776 315.84 40.416 315.84C51.36 315.84 60.768 319.776 67.008 327.072L58.944 334.656C54.048 329.376 48 326.784 40.992 326.784C27.072 326.784 16.992 336.576 16.992 350.4C16.992 364.224 27.072 374.016 40.992 374.016C48 374.016 54.048 371.424 58.944 366.048L67.008 373.728C60.768 381.024 51.36 384.96 40.32 384.96ZM110.372 332.736H122.372V384H110.947V377.376C106.915 382.272 100.963 384.672 93.9555 384.672C78.9795 384.672 68.0355 374.304 68.0355 358.368C68.0355 342.432 78.9795 332.16 93.9555 332.16C100.483 332.16 106.243 334.368 110.372 338.976V332.736ZM95.2995 374.4C104.035 374.4 110.564 368.16 110.564 358.368C110.564 348.576 104.035 342.336 95.2995 342.336C86.6595 342.336 80.1315 348.576 80.1315 358.368C80.1315 368.16 86.6595 374.4 95.2995 374.4ZM150.168 384.672C139.512 384.672 133.272 378.624 133.272 367.968V312.768H145.272V367.104C145.272 372.096 147.672 374.784 152.472 374.784C154.104 374.784 155.832 374.304 156.792 373.824L157.368 383.424C155.064 384.288 152.568 384.672 150.168 384.672ZM184.169 374.496C189.929 374.496 194.345 372.672 198.089 368.928L204.425 376.32C199.913 381.792 192.713 384.672 183.881 384.672C166.697 384.672 155.561 373.632 155.561 358.368C155.561 343.104 166.697 332.16 181.961 332.16C196.265 332.16 207.785 341.76 207.881 357.792L168.617 365.472C171.113 371.328 176.681 374.496 184.169 374.496ZM181.961 341.76C173.225 341.76 167.177 347.904 167.177 357.696V357.792L196.169 352.224C194.537 345.984 189.161 341.76 181.961 341.76ZM243.698 332.16C255.986 332.16 265.106 339.168 265.106 354.624V384H253.106V356.16C253.106 347.04 248.594 342.624 240.914 342.624C232.37 342.624 226.61 347.808 226.61 358.08V384H214.61V332.736H226.034V339.36C229.97 334.656 236.21 332.16 243.698 332.16ZM314.205 312.768H326.205V384H314.685V377.376C310.653 382.272 304.701 384.672 297.693 384.672C282.813 384.672 271.773 374.304 271.773 358.368C271.773 342.432 282.813 332.16 297.693 332.16C304.317 332.16 310.173 334.368 314.205 339.072V312.768ZM299.133 374.4C307.773 374.4 314.397 368.16 314.397 358.368C314.397 348.576 307.773 342.336 299.133 342.336C290.493 342.336 283.869 348.576 283.869 358.368C283.869 368.16 290.493 374.4 299.133 374.4ZM375.215 332.736H387.215V384H375.791V377.376C371.759 382.272 365.807 384.672 358.799 384.672C343.823 384.672 332.879 374.304 332.879 358.368C332.879 342.432 343.823 332.16 358.799 332.16C365.327 332.16 371.087 334.368 375.215 338.976V332.736ZM360.143 374.4C368.879 374.4 375.407 368.16 375.407 358.368C375.407 348.576 368.879 342.336 360.143 342.336C351.503 342.336 344.975 348.576 344.975 358.368C344.975 368.16 351.503 374.4 360.143 374.4ZM409.54 340.224C412.996 334.848 419.236 332.16 427.78 332.16V343.584C426.724 343.392 425.86 343.296 424.996 343.296C415.876 343.296 410.116 348.672 410.116 359.136V384H398.116V332.736H409.54V340.224Z" fill="#3E3E3E"/>
<defs>
<filter id="filter0_d_1113_193" x="90" y="23" width="243" height="252" filterUnits="userSpaceOnUse" color-interpolation-filters="sRGB">
<feFlood flood-opacity="0" result="BackgroundImageFix"/>
<feColorMatrix in="SourceAlpha" type="matrix" values="0 0 0 0 0 0 0 0 0 0 0 0 0 0 0 0 0 0 127 0" result="hardAlpha"/>
<feOffset dy="5"/>
<feGaussianBlur stdDeviation="5"/>
<feComposite in2="hardAlpha" operator="out"/>
<feColorMatrix type="matrix" values="0 0 0 0 0 0 0 0 0 0 0 0 0 0 0 0 0 0 0.25 0"/>
<feBlend mode="normal" in2="BackgroundImageFix" result="effect1_dropShadow_1113_193"/>
<feBlend mode="normal" in="SourceGraphic" in2="effect1_dropShadow_1113_193" result="shape"/>
</filter>
<filter id="filter1_d_1113_193" x="97" y="14" width="230" height="254" filterUnits="userSpaceOnUse" color-interpolation-filters="sRGB">
<feFlood flood-opacity="0" result="BackgroundImageFix"/>
<feColorMatrix in="SourceAlpha" type="matrix" values="0 0 0 0 0 0 0 0 0 0 0 0 0 0 0 0 0 0 127 0" result="hardAlpha"/>
<feOffset dy="5"/>
<feGaussianBlur stdDeviation="5"/>
<feComposite in2="hardAlpha" operator="out"/>
<feColorMatrix type="matrix" values="0 0 0 0 0 0 0 0 0 0 0 0 0 0 0 0 0 0 0.25 0"/>
<feBlend mode="normal" in2="BackgroundImageFix" result="effect1_dropShadow_1113_193"/>
<feBlend mode="normal" in="SourceGraphic" in2="effect1_dropShadow_1113_193" result="shape"/>
</filter>
<filter id="filter2_d_1113_193" x="94" y="8" width="236" height="254" filterUnits="userSpaceOnUse" color-interpolation-filters="sRGB">
<feFlood flood-opacity="0" result="BackgroundImageFix"/>
<feColorMatrix in="SourceAlpha" type="matrix" values="0 0 0 0 0 0 0 0 0 0 0 0 0 0 0 0 0 0 127 0" result="hardAlpha"/>
<feOffset dy="5"/>
<feGaussianBlur stdDeviation="5"/>
<feComposite in2="hardAlpha" operator="out"/>
<feColorMatrix type="matrix" values="0 0 0 0 0 0 0 0 0 0 0 0 0 0 0 0 0 0 0.25 0"/>
<feBlend mode="normal" in2="BackgroundImageFix" result="effect1_dropShadow_1113_193"/>
<feBlend mode="normal" in="SourceGraphic" in2="effect1_dropShadow_1113_193" result="shape"/>
</filter>
<filter id="filter3_d_1113_193" x="128.523" y="96.6486" width="157.947" height="125.018" filterUnits="userSpaceOnUse" color-interpolation-filters="sRGB">
<feFlood flood-opacity="0" result="BackgroundImageFix"/>
<feColorMatrix in="SourceAlpha" type="matrix" values="0 0 0 0 0 0 0 0 0 0 0 0 0 0 0 0 0 0 127 0" result="hardAlpha"/>
<feOffset dy="3"/>
<feGaussianBlur stdDeviation="10"/>
<feComposite in2="hardAlpha" operator="out"/>
<feColorMatrix type="matrix" values="0 0 0 0 0 0 0 0 0 0 0 0 0 0 0 0 0 0 0.25 0"/>
<feBlend mode="normal" in2="BackgroundImageFix" result="effect1_dropShadow_1113_193"/>
<feBlend mode="normal" in="SourceGraphic" in2="effect1_dropShadow_1113_193" result="shape"/>
</filter>
<linearGradient id="paint0_linear_1113_193" x1="201.176" y1="82.0342" x2="232.327" y2="225.726" gradientUnits="userSpaceOnUse">
<stop stop-color="#4D4D4D"/>
<stop offset="1" stop-color="#282524"/>
</linearGradient>
<linearGradient id="paint1_linear_1113_193" x1="100" y1="140.807" x2="323" y2="140.807" gradientUnits="userSpaceOnUse">
<stop stop-color="white" stop-opacity="0.1"/>
<stop offset="0.475" stop-color="white" stop-opacity="0.5"/>
<stop offset="1" stop-color="white" stop-opacity="0.1"/>
</linearGradient>
<linearGradient id="paint2_linear_1113_193" x1="202.278" y1="73.5" x2="235.709" y2="217.479" gradientUnits="userSpaceOnUse">
<stop stop-color="#4D4D4D"/>
<stop offset="1" stop-color="#282524"/>
</linearGradient>
<linearGradient id="paint3_linear_1113_193" x1="107" y1="132.78" x2="317" y2="132.78" gradientUnits="userSpaceOnUse">
<stop stop-color="white" stop-opacity="0.1"/>
<stop offset="0.475" stop-color="white" stop-opacity="0.5"/>
<stop offset="1" stop-color="white" stop-opacity="0.1"/>
</linearGradient>
<linearGradient id="paint4_linear_1113_193" x1="202" y1="67.5" x2="234.594" y2="211.884" gradientUnits="userSpaceOnUse">
<stop stop-color="#4D4D4D"/>
<stop offset="1" stop-color="#282524"/>
</linearGradient>
<linearGradient id="paint5_linear_1113_193" x1="104" y1="126.78" x2="320" y2="126.78" gradientUnits="userSpaceOnUse">
<stop stop-color="white" stop-opacity="0.1"/>
<stop offset="0.475" stop-color="white" stop-opacity="0.5"/>
<stop offset="1" stop-color="white" stop-opacity="0.1"/>
</linearGradient>
<linearGradient id="paint6_linear_1113_193" x1="212" y1="82" x2="212" y2="227" gradientUnits="userSpaceOnUse">
<stop stop-color="white"/>
<stop offset="1" stop-color="white" stop-opacity="0"/>
</linearGradient>
<linearGradient id="paint7_linear_1113_193" x1="212" y1="227" x2="212" y2="236" gradientUnits="userSpaceOnUse">
<stop stop-color="white"/>
<stop offset="1" stop-color="white" stop-opacity="0"/>
</linearGradient>
<linearGradient id="paint8_linear_1113_193" x1="212" y1="76" x2="212" y2="13" gradientUnits="userSpaceOnUse">
<stop stop-color="white" stop-opacity="0"/>
<stop offset="1" stop-color="white"/>
</linearGradient>
<linearGradient id="paint9_linear_1113_193" x1="17" y1="0" x2="17" y2="34" gradientUnits="userSpaceOnUse">
<stop stop-opacity="0"/>
<stop offset="1"/>
</linearGradient>
<linearGradient id="paint10_linear_1113_193" x1="17" y1="34" x2="17" y2="0" gradientUnits="userSpaceOnUse">
<stop stop-color="white"/>
<stop offset="1" stop-color="#BABABA" stop-opacity="0"/>
</linearGradient>
<linearGradient id="paint11_linear_1113_193" x1="17" y1="0" x2="17" y2="34" gradientUnits="userSpaceOnUse">
<stop stop-opacity="0"/>
<stop offset="1"/>
</linearGradient>
<linearGradient id="paint12_linear_1113_193" x1="17" y1="34" x2="17" y2="0" gradientUnits="userSpaceOnUse">
<stop stop-color="white"/>
<stop offset="1" stop-color="#BABABA" stop-opacity="0"/>
</linearGradient>
<linearGradient id="paint13_linear_1113_193" x1="161" y1="-0.5" x2="161" y2="52" gradientUnits="userSpaceOnUse">
<stop stop-color="#666666"/>
<stop offset="0.234748" stop-color="#272727"/>
<stop offset="0.9999" stop-color="#272727"/>
<stop offset="1" stop-color="#666666"/>
</linearGradient>
<linearGradient id="paint14_linear_1113_193" x1="257" y1="-0.5" x2="257" y2="52" gradientUnits="userSpaceOnUse">
<stop stop-color="#666666"/>
<stop offset="0.234748" stop-color="#272727"/>
<stop offset="0.9999" stop-color="#272727"/>
<stop offset="1" stop-color="#666666"/>
</linearGradient>
</defs>
</svg>
